PathFileType	4	(X/Y/Z)	C:\Users\WrightLab\Desktop\Jo\P2_Trial20.trc
DataRate	CameraRate	NumFrames	NumMarkers	Units	OrigDataRate	OrigDataStartFrame	OrigNumFrames
100.00	100.00	       6	19	mm	100.00	591	       787
Frame#	Time	Headset_Front			Headset_Back			Headset_Left			Headset_Right			Left_Shoulder			Right_Shoulder			Sternum			C7			Left Elbow			Right Elbow			Left Wrist			Right Wrist			Left ASIS			Right ASIS			S2			Left Knee			Right Knee			Left Ankle			Right Ankle			
		X1	Y1	Z1	X2	Y2	Z2	X3	Y3	Z3	X4	Y4	Z4	X5	Y5	Z5	X6	Y6	Z6	X7	Y7	Z7	X8	Y8	Z8	X9	Y9	Z9	X10	Y10	Z10	X11	Y11	Z11	X12	Y12	Z12	X13	Y13	Z13	X14	Y14	Z14	X15	Y15	Z15	X16	Y16	Z16	X17	Y17	Z17	X18	Y18	Z18	X19	Y19	Z19	

591	5.900	-845.56641	1391.21460	-329.45023	-806.79138	1653.46130	-169.32048	-932.27203	1538.62976	-205.46593	-728.61523	1478.42969	-294.46353	-961.39392	1412.79431	-90.79068	-636.83051	1403.93872	-129.58607	-801.11157	1279.35168	-147.06610	-770.69507	1423.25757	1.83211	-1099.93018	1076.35583	-170.27524	-523.85834	1098.29822	-39.67619	-1058.90515	1113.02405	-10.15027	-501.90457	863.62482	-86.43623	-856.77545	999.33337	-116.85496	-725.73163	976.04205	-136.18266	-761.83832	943.82361	136.10085	-957.01318	438.76889	141.88959	-704.15643	540.92896	-130.84929	-925.62341	86.79179	211.21002	-782.90759	136.40407	-264.69336	
592	5.910	-847.13000	1391.01184	-338.72745	-809.15790	1652.10010	-177.39748	-934.34784	1537.32581	-214.58975	-729.94153	1477.93262	-302.32813	-963.56891	1411.12463	-100.81903	-639.08746	1402.97620	-137.67378	-802.75751	1277.70874	-156.40532	-773.03998	1421.62195	-7.56385	-1101.04114	1073.20251	-181.07660	-525.16266	1098.35132	-45.53808	-1060.54138	1110.64978	-20.26701	-502.04956	859.72559	-83.70575	-859.12396	997.50867	-126.10390	-727.13849	974.87183	-145.65030	-765.22241	942.23260	126.31462	-959.02185	438.04657	134.40880	-705.24670	537.10657	-134.01811	-926.02002	85.78165	210.60027	-781.77393	139.83607	-285.92743	
593	5.920	-848.79675	1390.60657	-347.66815	-811.51440	1650.65015	-184.79561	-936.35992	1535.90601	-223.11678	-731.43573	1477.85461	-310.92380	-965.88824	1408.95276	-109.91252	-640.67932	1401.54749	-145.74249	-804.68756	1276.07239	-165.94006	-775.38635	1421.11755	-16.59529	-1102.00806	1069.69312	-190.09734	-526.52191	1097.77100	-50.10708	-1062.36145	1107.91565	-30.00329	-502.52911	856.04340	-80.70547	-861.23541	995.98816	-134.98564	-730.71222	972.08289	-152.52072	-767.50684	940.55713	118.46643	-959.56714	436.41956	129.80466	-706.98102	533.54297	-138.30414	-927.46698	88.27583	213.98416	-780.12799	143.25537	-306.76489	
594	5.930	-850.41028	1390.27673	-357.49066	-813.70313	1649.62622	-193.09164	-937.02844	1534.34460	-231.03294	-733.09930	1477.25867	-320.46127	-967.66870	1407.00977	-119.63638	-642.49561	1400.31506	-154.96410	-806.25793	1274.42578	-175.11525	-778.11230	1418.65430	-25.27342	-1102.19836	1067.02405	-201.49133	-527.71277	1097.17249	-54.90268	-1063.80908	1105.65356	-40.83763	-503.06363	852.18372	-77.59965	-863.49896	994.06464	-144.05545	-731.86456	971.63611	-163.03993	-769.72186	939.20923	108.29262	-962.11517	435.04611	123.09140	-708.74048	530.92395	-142.58083	-928.28174	88.04823	211.90262	-777.04053	147.38556	-325.45697	
595	5.940	-851.66248	1389.57385	-366.66919	-816.04865	1648.55444	-201.04193	-939.44055	1532.93115	-239.56654	-735.10925	1476.95337	-329.43182	-969.35919	1405.35266	-130.31749	-644.20380	1399.84680	-166.24797	-807.66437	1273.05762	-185.03209	-780.50641	1416.99023	-35.29330	-1103.19836	1064.52258	-211.78416	-529.99713	1095.97864	-60.80655	-1064.83313	1103.46765	-50.81821	-504.76526	849.21075	-76.07867	-865.50037	992.22296	-154.13507	-734.27429	969.28491	-171.86752	-772.14606	937.36237	99.27175	-963.75604	434.62421	115.83472	-710.13379	528.33154	-147.58853	-929.48956	88.82951	211.07942	-773.40942	150.86433	-341.23517	
596	5.950	-853.17200	1388.91809	-376.04630	-818.53864	1647.32849	-209.09506	-940.55963	1531.05615	-247.42372	-736.93115	1477.44153	-338.62329	-971.09271	1403.66455	-140.19707	-644.83569	1396.90552	-172.71048	-808.82147	1271.55688	-195.15607	-782.22784	1415.75818	-45.01382	-1103.34485	1061.73340	-221.69662	-532.46082	1094.79028	-66.97125	-1066.03784	1101.00317	-61.46370	-505.42987	846.43475	-76.18551	-867.48981	990.14166	-163.22604	-735.56262	967.80774	-181.62550	-773.64178	936.38019	90.96783	-964.98187	433.52505	110.34248	-710.89313	526.82922	-153.04938	-930.30530	89.17281	210.31944	-769.20361	154.58476	-355.63852	
